<?xml version="1.0" encoding="UTF-8"?>
<svg id="Calque_1" data-name="Calque 1" xmlns="http://www.w3.org/2000/svg" xmlns:xlink="http://www.w3.org/1999/xlink" viewBox="0 0 1583.53 259.82">
  <defs>
    <style>
      .cls-1, .cls-2, .cls-3 {
        stroke-width: 0px;
      }

      .cls-1, .cls-4 {
        fill: none;
      }

      .cls-2 {
        fill: #fff;
      }

      .cls-5 {
        clip-path: url(#clippath);
      }

      .cls-3 {
        fill: #a2d8e5;
      }

      .cls-4 {
        stroke: #fff;
        stroke-linecap: round;
        stroke-miterlimit: 10;
        stroke-width: 5px;
      }
    </style>
    <clipPath id="clippath">
      <circle class="cls-1" cx="280.19" cy="129.91" r="94.84"/>
    </clipPath>
  </defs>
  <g>
    <circle class="cls-2" cx="280.19" cy="129.91" r="129.91"/>
    <circle class="cls-3" cx="280.19" cy="129.91" r="94.84"/>
    <polygon class="cls-3" points="161.4 12.72 118.77 12.72 0 131.49 115.62 247.1 158.17 247.1 42.64 131.49 161.4 12.72"/>
    <polygon class="cls-3" points="398.94 247.1 441.57 247.1 560.34 128.34 444.72 12.72 402.17 12.72 517.7 128.34 398.94 247.1"/>
    <g class="cls-5">
      <g>
        <path class="cls-4" d="m230.73,47s-58.5,105.01,37.8,181.8"/>
        <path class="cls-4" d="m181.59,133.96s46.6-78.63,182.55-52.85"/>
        <path class="cls-4" d="m293.26,25.37s57.54,60.01,10.15,230.43"/>
        <path class="cls-4" d="m189.62,170.46s96.38,33.8,188.91-49.08"/>
      </g>
    </g>
  </g>
  <g>
    <path class="cls-2" d="m618.34,197.55V39.58h12.28v157.97h-12.28Zm7.88-146.85v-11.12h93.81v11.12h-93.81Zm0,71.34v-10.89h87.79v10.89h-87.79Zm0,75.51v-11.12h94.97v11.12h-94.97Z"/>
    <path class="cls-2" d="m787.42,197.78l-47.95-107.94h12.97l41.46,95.66h-6.02l43.31-95.66h12.97l-50.73,107.94h-6.02.01Zm-28.03,45.4l27.56-56.98,6.49,11.58-21.31,45.4h-12.74Z"/>
    <path class="cls-2" d="m910.19,199.86c-10.81,0-20.46-2.47-28.95-7.41s-15.21-11.66-20.15-20.15c-4.94-8.49-7.41-18.07-7.41-28.72s2.39-20.19,7.18-28.61,11.39-15.09,19.8-20.04c8.41-4.94,17.79-7.41,28.14-7.41,9.73,0,18.38,2.2,25.94,6.6s13.47,10.46,17.72,18.18,6.37,16.68,6.37,26.87c0,.93-.08,2.12-.23,3.59-.16,1.47-.39,3.21-.69,5.21h-95.89v-10.19h89.18l-3.94,3.24c.31-8.49-1.08-15.94-4.17-22.35-3.09-6.41-7.57-11.39-13.43-14.94-5.87-3.55-12.9-5.33-21.08-5.33s-15.98,1.89-22.47,5.67c-6.49,3.79-11.55,9-15.17,15.63-3.63,6.64-5.44,14.36-5.44,23.16,0,9.26,1.89,17.34,5.67,24.21,3.78,6.87,9.07,12.2,15.87,15.98,6.79,3.79,14.75,5.67,23.86,5.67,6.95,0,13.39-1.27,19.34-3.82,5.94-2.55,10.92-6.37,14.94-11.47l7.88,7.64c-5.1,5.87-11.35,10.46-18.76,13.78-7.41,3.32-15.44,4.98-24.09,4.98l-.02.03Z"/>
    <path class="cls-2" d="m1029.24,197.55l-50.5-157.97h12.51l44.94,143.38h-4.4l44.71-143.38h9.96l44.94,143.38h-4.63l45.17-143.38h12.51l-50.73,157.97h-9.5l-44.7-142.92h3.94l-44.47,142.92h-9.75Z"/>
    <path class="cls-2" d="m1243.27,199.86c-10.81,0-20.46-2.47-28.95-7.41s-15.21-11.66-20.15-20.15c-4.94-8.49-7.41-18.07-7.41-28.72s2.39-20.19,7.18-28.61,11.39-15.09,19.8-20.04c8.41-4.94,17.79-7.41,28.14-7.41,9.73,0,18.38,2.2,25.94,6.6,7.56,4.4,13.47,10.46,17.72,18.18s6.37,16.68,6.37,26.87c0,.93-.08,2.12-.23,3.59-.16,1.47-.39,3.21-.69,5.21h-95.89v-10.19h89.18l-3.94,3.24c.31-8.49-1.08-15.94-4.17-22.35-3.09-6.41-7.57-11.39-13.43-14.94-5.87-3.55-12.9-5.33-21.08-5.33s-15.98,1.89-22.47,5.67c-6.49,3.79-11.55,9-15.17,15.63-3.63,6.64-5.44,14.36-5.44,23.16,0,9.26,1.89,17.34,5.67,24.21,3.78,6.87,9.07,12.2,15.87,15.98,6.79,3.79,14.75,5.67,23.86,5.67,6.95,0,13.39-1.27,19.34-3.82,5.94-2.55,10.92-6.37,14.94-11.47l7.88,7.64c-5.1,5.87-11.35,10.46-18.76,13.78-7.41,3.32-15.44,4.98-24.09,4.98l-.02.03Z"/>
    <path class="cls-2" d="m1318.78,197.55V34.94h11.81v81.07l-2.78,26.17,2.78,26.41v28.95h-11.81Zm54.66,2.32c-8.03,0-15.4-1.62-22.12-4.86s-12.32-7.76-16.79-13.55c-4.48-5.79-7.41-12.54-8.8-20.27v-35.21c1.39-7.88,4.36-14.71,8.92-20.5,4.55-5.79,10.19-10.23,16.91-13.32,6.72-3.09,14.01-4.63,21.89-4.63,10.19,0,19.3,2.47,27.33,7.41,8.03,4.94,14.36,11.66,18.99,20.15s6.95,18.07,6.95,28.72-2.32,20.19-6.95,28.61-10.97,15.1-18.99,20.04c-8.03,4.94-17.14,7.41-27.33,7.41h-.01Zm-2.08-11.12c8.49,0,15.98-1.93,22.47-5.79s11.54-9.19,15.17-15.98,5.44-14.59,5.44-23.39-1.82-16.56-5.44-23.28c-3.63-6.72-8.65-12-15.06-15.87-6.41-3.86-13.78-5.79-22.12-5.79s-15.4,1.93-21.66,5.79c-6.25,3.86-11.16,9.15-14.71,15.87-3.55,6.72-5.33,14.56-5.33,23.51s1.74,16.56,5.21,23.28,8.34,12.01,14.59,15.87,13.39,5.79,21.43,5.79h.01Z"/>
  </g>
  <g>
    <path class="cls-3" d="m1458.87,199.21v-72.7h7.29v72.7h-7.29Z"/>
    <path class="cls-3" d="m1484.33,140.58c-1.37,0-2.53-.51-3.49-1.54-.96-1.03-1.44-2.22-1.44-3.59,0-1.44.48-2.63,1.44-3.59s2.12-1.44,3.49-1.44c1.5,0,2.72.48,3.65,1.44.92.96,1.39,2.16,1.39,3.59s-.46,2.57-1.39,3.59c-.92,1.03-2.14,1.54-3.65,1.54Zm-3.59,58.63v-48.26h7.29v48.26h-7.29Z"/>
    <path class="cls-3" d="m1497.89,157.52v-6.57h31.53v6.57h-31.53Zm12.12,41.69v-68.6h7.29v68.6h-7.29Z"/>
    <path class="cls-3" d="m1561.45,200.24c-4.79,0-9.11-1.09-12.94-3.29-3.83-2.19-6.86-5.2-9.09-9.04-2.23-3.83-3.34-8.15-3.34-12.94s1.08-8.99,3.23-12.78c2.16-3.8,5.12-6.79,8.88-8.99,3.76-2.19,7.97-3.29,12.63-3.29s8.37.99,11.76,2.98c3.39,1.99,6.06,4.74,8.01,8.27,1.95,3.53,2.93,7.58,2.93,12.17,0,.55-.04,1.18-.1,1.9-.07.72-.21,1.56-.41,2.52h-41.79v-6.16h37.79l-2.57,2.26c.07-3.49-.53-6.52-1.8-9.09-1.27-2.57-3.08-4.57-5.44-6.01-2.36-1.44-5.19-2.16-8.47-2.16-3.49,0-6.54.77-9.14,2.31-2.6,1.54-4.64,3.66-6.11,6.37-1.47,2.71-2.21,5.87-2.21,9.5s.77,6.95,2.31,9.75c1.54,2.81,3.7,5,6.47,6.57,2.77,1.58,5.97,2.36,9.6,2.36,2.88,0,5.54-.53,8.01-1.59,2.46-1.06,4.55-2.65,6.26-4.78l4.72,4.72c-2.26,2.74-5.07,4.83-8.42,6.26-3.36,1.44-6.95,2.16-10.78,2.16Z"/>
  </g>
</svg>