<?xml version="1.0" encoding="UTF-8"?>
<svg id="Calque_1" data-name="Calque 1" xmlns="http://www.w3.org/2000/svg" xmlns:xlink="http://www.w3.org/1999/xlink" viewBox="0 0 560.34 259.82">
  <defs>
    <style>
      .cls-1 {
        fill: #a1d7e4;
      }

      .cls-1, .cls-2, .cls-3 {
        stroke-width: 0px;
      }

      .cls-2, .cls-4 {
        fill: none;
      }

      .cls-3 {
        fill: #02567b;
      }

      .cls-5 {
        clip-path: url(#clippath);
      }

      .cls-4 {
        stroke: #fff;
        stroke-linecap: round;
        stroke-miterlimit: 10;
        stroke-width: 5px;
      }
    </style>
    <clipPath id="clippath">
      <circle class="cls-2" cx="280.19" cy="129.91" r="94.84"/>
    </clipPath>
  </defs>
  <circle class="cls-3" cx="280.19" cy="129.91" r="129.91"/>
  <circle class="cls-1" cx="280.19" cy="129.91" r="94.84"/>
  <polygon class="cls-1" points="161.4 12.72 118.77 12.72 0 131.49 115.62 247.1 158.17 247.1 42.64 131.49 161.4 12.72"/>
  <polygon class="cls-1" points="398.94 247.1 441.57 247.1 560.34 128.34 444.72 12.72 402.17 12.72 517.7 128.34 398.94 247.1"/>
  <g class="cls-5">
    <path class="cls-4" d="M230.73,47s-58.5,105.01,37.8,181.8"/>
    <path class="cls-4" d="M181.59,133.96s46.6-78.63,182.55-52.85"/>
    <path class="cls-4" d="M293.26,25.37s57.54,60.01,10.15,230.43"/>
    <path class="cls-4" d="M189.62,170.46s96.38,33.8,188.91-49.08"/>
  </g>
</svg>